<svg width="40" height="160" viewBox="0 0 40 160" fill="none" xmlns="http://www.w3.org/2000/svg">
<rect x="0.5" y="0.5" width="39" height="159" rx="19.5" stroke="white"/>
<path d="M9.48 133.92V137.76H6.84L6.84 126.72H9.48L9.48 130.56H12.36L12.36 126.72H15L15 137.76H12.36V133.92H9.48ZM12.36 123.12L12.36 116.16H15V126.48H6.84V123.12H12.36ZM9.48 112.205V116.045H6.84L6.84 105.005H9.48V108.845H12.36V105.005H15V116.045H12.36V112.205H9.48ZM11.184 96.1252H6.84V92.7652H15V97.0012L10.74 101.405H15L15 104.765H6.84L6.84 100.445L11.184 96.1252ZM12.24 81.9814V85.4374C12.564 85.2574 12.72 84.9454 12.72 84.4774V79.2094H15V84.5974C15 87.3214 13.776 88.6894 11.76 88.6894C10.812 88.6894 10.032 88.3414 9.432 87.6574C8.82 86.9614 8.52 85.9414 8.52 84.5974V81.9814C8.52 81.2014 8.592 80.6614 8.832 80.0494C9.06 79.4374 9.576 79.0894 10.344 79.0894C11.604 79.0894 12.24 80.0494 12.24 81.9814ZM10.8 82.2814V84.4774C10.8 84.9454 10.956 85.2574 11.28 85.4374V82.2814C11.28 82.0294 11.196 81.9094 11.04 81.9094C10.884 81.9094 10.8 82.0294 10.8 82.2814ZM6.84 75.6056L6.84 67.3256H9.48L9.48 75.0296C9.48 75.5696 9.636 75.8456 9.948 75.8456C10.272 75.8456 10.44 75.5696 10.44 75.0296V71.1296C10.44 70.1336 10.536 69.3656 10.716 68.8136C11.064 67.7456 11.748 67.2056 12.756 67.2056C13.8 67.2056 14.484 67.7936 14.808 68.9696C14.94 69.4376 15 70.0016 15 70.6856L15 78.9656H12.36V71.2616C12.36 70.7216 12.204 70.4456 11.892 70.4456C11.568 70.4456 11.4 70.7216 11.4 71.2616V75.1616C11.4 76.1336 11.316 76.8896 11.148 77.4176C10.8 78.5336 10.116 79.0856 9.084 79.0856C8.04 79.0856 7.356 78.4976 7.032 77.3216C6.9 76.8536 6.84 76.2896 6.84 75.6056ZM17.76 67.0884H8.52V61.2804C8.52 59.9364 8.82 58.9164 9.432 58.2324C10.032 57.5364 10.812 57.1884 11.76 57.1884C13.776 57.1884 15 58.5564 15 61.2804V63.9684H17.76V67.0884ZM10.8 63.9684H12.72V61.4004C12.768 59.9484 10.752 59.9484 10.8 61.4004V63.9684ZM11.76 57.1828C10.812 57.1828 10.032 56.8348 9.432 56.1508C8.82 55.4548 8.52 54.4348 8.52 53.0908V50.3548C8.52 49.0108 8.82 47.9908 9.432 47.3068C10.032 46.6108 10.812 46.2628 11.76 46.2628C13.776 46.2628 15 47.6308 15 50.3548V53.0908C15 55.8148 13.776 57.1828 11.76 57.1828ZM10.8 50.4748V52.9708C10.752 54.4228 12.768 54.4228 12.72 52.9708V50.4748C12.768 49.0228 10.752 49.0228 10.8 50.4748ZM11.76 43.0266H15V46.1466H11.76C9.744 46.1466 8.52 44.7786 8.52 42.0546L8.52 39.4266H10.8V41.9346C10.8 42.6906 11.244 43.0266 11.76 43.0266ZM15 31.7484V35.2164C15 37.9404 13.776 39.3084 11.76 39.3084H8.52L6.96 37.3884V36.1884H8.52V31.7484H10.8L10.8 36.1884H11.76C12.276 36.1884 12.72 35.8524 12.72 35.0964L12.72 31.7484H15ZM15 25.0294L15 31.5334H12.72V25.3294C12.72 25.0774 12.636 24.9574 12.48 24.9574C12.324 24.9574 12.24 25.0774 12.24 25.3294V28.7254C12.24 30.6574 11.616 31.6294 10.356 31.6294C9.588 31.6294 9.072 31.2814 8.832 30.6694C8.592 30.0574 8.52 29.5054 8.52 28.7254V22.2334H10.8V28.4254C10.8 28.6774 10.884 28.8094 11.04 28.8094C11.196 28.8094 11.28 28.6774 11.28 28.4254V25.0294C11.28 23.0974 11.916 22.1374 13.176 22.1374C13.944 22.1374 14.46 22.4854 14.7 23.0974C14.928 23.7094 15 24.2494 15 25.0294Z" fill="white"/>
<path d="M28 133.925V137.869H26.6174V134.107C26.6174 133.954 26.5665 133.881 26.4719 133.881C26.3773 133.881 26.3264 133.954 26.3264 134.107L26.3264 136.166C26.3264 137.338 25.948 137.927 25.184 137.927C24.7183 137.927 24.4054 137.716 24.2598 137.345C24.1143 136.974 24.0706 136.639 24.0706 136.166V132.23H25.4532V135.984C25.4532 136.137 25.5041 136.217 25.5987 136.217C25.6933 136.217 25.7443 136.137 25.7443 135.984V133.925C25.7443 132.754 26.1299 132.171 26.894 132.171C27.3597 132.171 27.6726 132.382 27.8181 132.754C27.9563 133.125 28 133.452 28 133.925ZM28 127.518V129.621C28 131.272 27.2578 132.102 26.0353 132.102H24.0706L23.1247 130.938V130.21H24.0706V127.518H25.4532V130.21H26.0353C26.3482 130.21 26.6174 130.006 26.6174 129.548V127.518H28ZM26.0353 125.481H28L28 127.373H26.0353C24.8129 127.373 24.0706 126.543 24.0706 124.891V123.298H25.4532L25.4532 124.819C25.4532 125.277 25.7224 125.481 26.0353 125.481ZM25.4532 117.764H28V121.766C28 122.239 27.9563 122.566 27.8181 122.937C27.6726 123.308 27.3597 123.519 26.894 123.519C26.1299 123.519 25.7443 122.937 25.7443 121.766L25.7443 119.655C25.5769 119.655 25.4532 119.786 25.4532 120.019V123.228H24.0706V119.779C24.0706 118.404 24.6309 117.764 25.4532 117.764ZM26.6174 121.584V119.655H26.3264V121.584C26.3264 121.737 26.3773 121.809 26.4719 121.809C26.5665 121.809 26.6174 121.737 26.6174 121.584ZM25.4532 116.888V117.616H24.0706V114.996H26.6174V114.269H28V117.616H26.6174V116.888H25.4532ZM23.7796 116.888H22.5426V114.996H23.7796L23.7796 116.888ZM24.0706 111.857V108.335H27.7017C28.9241 108.335 29.6736 109.164 29.6736 110.816V114.011H28.2911V110.692C28.2911 110.38 28.1965 110.227 28 110.227V111.857C28 113.508 27.2578 114.338 26.0353 114.338C25.4605 114.338 24.9875 114.127 24.6237 113.712C24.2526 113.29 24.0706 112.672 24.0706 111.857ZM26.6174 111.784V110.227H25.4532V111.784C25.4241 112.664 26.6466 112.664 26.6174 111.784ZM25.4532 106.294H28V108.186H22.5426V106.294H24.0706V104.81C24.0706 103.158 24.8129 102.328 26.0353 102.328H28V104.22H26.0353C25.7224 104.22 25.4532 104.424 25.4532 104.882V106.294ZM28 97.6715V99.7744C28 101.426 27.2578 102.256 26.0353 102.256H24.0706L23.1247 101.091V100.364H24.0706V97.6715H25.4532V100.364H26.0353C26.3482 100.364 26.6174 100.16 26.6174 99.7016V97.6715H28ZM26.0353 95.2008C25.4605 95.2008 24.9875 94.9898 24.6237 94.575C24.2526 94.153 24.0706 93.5345 24.0706 92.7195V91.0604C24.0706 90.2455 24.2526 89.627 24.6237 89.2122C24.9875 88.7901 25.4605 88.5791 26.0353 88.5791C27.2578 88.5791 28 89.4087 28 91.0604L28 92.7195C28 94.3713 27.2578 95.2008 26.0353 95.2008ZM25.4532 91.1332V92.6467C25.4241 93.5272 26.6466 93.5272 26.6174 92.6467L26.6174 91.1332C26.6466 90.2527 25.4241 90.2527 25.4532 91.1332ZM26.6174 84.5784H24.0706V82.6865H28V86.0628C28 87.7146 27.2578 88.5442 26.0353 88.5442H24.0706V86.6522H26.0353C26.3482 86.6522 26.6174 86.4485 26.6174 85.9901V84.5784ZM28 77.9587L28 80.0616C28 81.7134 27.2578 82.543 26.0353 82.543H24.0706L23.1247 81.3787V80.651H24.0706L24.0706 77.9587H25.4532V80.651H26.0353C26.3482 80.651 26.6174 80.4473 26.6174 79.9889L26.6174 77.9587H28ZM26.0353 75.4881C25.4605 75.4881 24.9875 75.277 24.6237 74.8623C24.2526 74.4402 24.0706 73.8217 24.0706 73.0068V71.3477C24.0706 70.5327 24.2526 69.9142 24.6237 69.4994C24.9875 69.0774 25.4605 68.8664 26.0353 68.8664C27.2578 68.8664 28 69.6959 28 71.3477V73.0068C28 74.6585 27.2578 75.4881 26.0353 75.4881ZM25.4532 71.4205V72.934C25.4241 73.8145 26.6466 73.8145 26.6174 72.934V71.4205C26.6466 70.54 25.4241 70.54 25.4532 71.4205ZM22.5426 66.3146V64.721H23.7796V66.3801C23.7796 66.7366 23.8378 66.904 24.0343 66.904H24.0706V64.721H25.4532V66.904H28V68.7959H24.5072C23.2848 68.7959 22.5426 67.9663 22.5426 66.3146ZM26.0426 57.2665H28V59.3039H26.0353L23.0519 62.3965V59.7041L24.4272 58.2852L23.0519 56.8662V54.1739L26.0426 57.2665ZM25.4532 49.3658H28V53.3679C28 53.8409 27.9563 54.1683 27.8181 54.5394C27.6726 54.9105 27.3597 55.1216 26.894 55.1216C26.1299 55.1216 25.7443 54.5394 25.7443 53.3679V51.2577C25.5769 51.2577 25.4532 51.3887 25.4532 51.6215L25.4532 54.8305H24.0706V51.3814C24.0706 50.0061 24.6309 49.3658 25.4532 49.3658ZM26.6174 53.186V51.2577H26.3264V53.186C26.3264 53.3388 26.3773 53.4116 26.4719 53.4116C26.5665 53.4116 26.6174 53.3388 26.6174 53.186ZM26.7266 47.3262H28V49.2181H22.5426L22.5426 47.3262H25.344V45.9146C25.344 45.4561 25.0748 45.2524 24.7619 45.2524H24.0706L24.0706 43.3605H24.7619C25.4823 43.3605 26.0062 43.6297 26.3409 44.1755L28 43.215V45.4707L26.7266 46.2056V47.3262ZM26.6174 39.2867H24.0706V37.3948H28V40.7711C28 42.4229 27.2578 43.2525 26.0353 43.2525H24.0706V41.3606H26.0353C26.3482 41.3606 26.6174 41.1568 26.6174 40.6984V39.2867ZM28 32.667V34.7699C28 36.4217 27.2578 37.2513 26.0353 37.2513H24.0706L23.1247 36.087V35.3594H24.0706V32.667H25.4532L25.4532 35.3594H26.0353C26.3482 35.3594 26.6174 35.1556 26.6174 34.6972V32.667H28ZM25.4532 31.7944V32.5221H24.0706V29.9025H26.6174V29.1748H28V32.5221H26.6174V31.7944H25.4532ZM23.7796 31.7944H22.5426L22.5426 29.9025H23.7796V31.7944ZM25.4532 23.4173H28V27.4194C28 27.8924 27.9563 28.2199 27.8181 28.591C27.6726 28.9621 27.3597 29.1731 26.894 29.1731C26.1299 29.1731 25.7443 28.591 25.7443 27.4194V25.3092C25.5769 25.3092 25.4532 25.4402 25.4532 25.6731V28.882H24.0706V25.4329C24.0706 24.0577 24.6309 23.4173 25.4532 23.4173ZM26.6174 27.2375V25.3092H26.3264V27.2375C26.3264 27.3903 26.3773 27.4631 26.4719 27.4631C26.5665 27.4631 26.6174 27.3903 26.6174 27.2375Z" fill="white"/>
</svg>
