<svg width="705" height="161" viewBox="0 0 705 161" fill="none" xmlns="http://www.w3.org/2000/svg">
<path d="M86.49 44.21L100.35 12.8H128.25L101.7 74H74.25L63.18 48.44L52.2 74H26.55L0 12.8H27.9L40.77 42.14L53.55 12.8H72.9L86.49 44.21ZM153.432 42.5V74H130.032V6.49999H153.432V25.4H171.792C192.222 25.4 202.482 34.58 202.482 49.7V74H179.082V49.7C179.082 45.83 176.562 42.5 170.892 42.5H153.432ZM276.348 42.5V74H226.848C220.998 74 216.948 73.46 212.358 71.75C207.768 69.95 205.158 66.08 205.158 60.32C205.158 50.87 212.358 46.1 226.848 46.1H252.948C252.948 44.03 251.328 42.5 248.448 42.5H208.758V25.4H251.418C268.428 25.4 276.348 32.33 276.348 42.5ZM229.098 56.9H252.948V53.3H229.098C227.208 53.3 226.308 53.93 226.308 55.1C226.308 56.27 227.208 56.9 229.098 56.9ZM336.674 74H310.664C290.234 74 279.974 64.82 279.974 49.7V25.4L294.374 13.7H303.374V25.4H336.674V42.5H303.374V49.7C303.374 53.57 305.894 56.9 311.564 56.9H336.674V74ZM380.732 42.5H371.732V25.4H404.132V56.9H413.132V74H371.732V56.9H380.732V42.5ZM380.732 21.8V6.49999H404.132V21.8H380.732ZM464.453 74H415.673V56.9H462.203C464.093 56.9 464.993 56.27 464.993 55.1C464.993 53.93 464.093 53.3 462.203 53.3H436.733C422.243 53.3 414.953 48.62 414.953 39.17C414.953 33.41 417.563 29.54 422.153 27.74C426.743 25.94 430.883 25.4 436.733 25.4H485.423V42.5H438.983C437.093 42.5 436.103 43.13 436.103 44.3C436.103 45.47 437.093 46.1 438.983 46.1H464.453C478.943 46.1 486.143 50.87 486.143 60.32C486.143 66.08 483.533 69.95 478.943 71.75C474.353 73.46 470.303 74 464.453 74Z" fill="white"/>
<path d="M303.6 111.6H274.8V91.8H357.6V111.6H328.8V133.2H357.6V153H274.8V133.2H303.6V111.6ZM386.396 133.2H438.596V153H361.196V91.8H386.396V133.2ZM470.065 111.6H441.265V91.8H524.065V111.6H495.265V133.2H524.065V153H441.265V133.2H470.065V111.6ZM592.461 124.38V91.8H617.661V153H585.891L552.861 121.05V153H527.661V91.8H560.061L592.461 124.38ZM634.765 153V133.2H659.965V153H634.765ZM659.965 124.83V129.6H634.765C634.765 123.75 637.015 120.15 640.615 118.17C643.405 116.73 645.565 116.1 649.525 115.74C653.575 115.29 656.185 115.2 660.865 115.2H670.945C673.195 115.2 674.365 114.57 674.365 113.4C674.365 112.23 673.195 111.6 670.945 111.6H623.065V91.8H672.565C678.685 91.8 683.005 92.07 685.615 92.52C688.225 92.97 690.385 93.78 692.095 94.86C696.505 97.65 698.665 101.79 698.665 107.19C698.665 112.41 696.505 116.46 692.095 119.43C690.385 120.6 688.135 121.32 685.345 121.77C682.555 122.22 678.325 122.4 672.565 122.4H664.375C661.405 122.4 659.965 123.21 659.965 124.83Z" fill="white"/>
</svg>
