<svg width="562" height="164" viewBox="0 0 562 164" fill="none" xmlns="http://www.w3.org/2000/svg">
<path d="M39.51 0.799999H89.1V20.6H40.5C31.05 20.6 27 25.19 27 31.4C27 37.52 31.05 42.2 40.5 42.2H89.1V62H39.51C13.68 62 0.9 50.48 0.9 31.4C0.9 22.4 4.14 15.02 10.71 9.35C17.28 3.68 26.82 0.799999 39.51 0.799999ZM117.879 0.799999H179.979V20.6H122.199C118.149 20.6 116.079 21.77 116.079 24.11C116.079 26.54 118.149 27.8 122.199 27.8H151.449C158.919 27.8 164.679 28.52 168.819 29.87C176.829 32.48 180.879 37.61 180.879 45.17C180.879 53 176.469 58.13 167.649 60.56C164.139 61.55 159.909 62 154.779 62H92.6789V42.2H150.459C154.509 42.2 156.579 41.03 156.579 38.69C156.579 36.26 154.509 35 150.459 35H121.209C113.919 35 108.249 34.37 104.289 33.11C95.9189 30.5 91.7789 25.37 91.7789 17.63C91.7789 9.8 96.1889 4.67 105.009 2.24C108.519 1.25 112.749 0.799999 117.879 0.799999ZM207.858 38.69V42.2H267.258V62H182.658V42.2C182.298 35.36 186.798 31.58 191.478 29.87C193.008 29.24 194.898 28.79 197.148 28.52C201.738 27.89 204.078 27.8 208.758 27.8H237.738C241.788 27.8 243.858 26.54 243.858 24.11C243.858 21.77 241.788 20.6 237.738 20.6H183.558V0.799999H242.058C247.188 0.799999 251.418 1.25 254.928 2.24C263.748 4.67 268.158 9.8 268.158 17.63C268.158 25.37 264.018 30.5 255.648 33.11C251.688 34.37 246.018 35 238.728 35H213.978C209.928 35 207.858 36.26 207.858 38.69ZM27 146.8V163H1.8V101.8H66.24C73.89 101.8 80.28 103.78 85.41 107.65C90.54 111.52 93.15 117.1 93.15 124.3C93.15 132.85 89.46 139.06 82.17 143.11L93.6 163H63.9L54.54 146.8H27ZM61.65 121.6H27V128.8H61.65C64.62 128.8 66.15 127.63 66.15 125.2C66.15 122.77 64.62 121.6 61.65 121.6ZM94.943 132.4C94.943 123.31 98.183 115.84 104.753 109.9C111.323 103.87 120.953 100.9 133.553 100.9H154.433C167.033 100.9 176.573 103.87 183.143 109.9C189.713 115.84 193.043 123.31 193.043 132.4C193.043 142.03 189.803 149.77 183.323 155.44C176.933 161.11 167.303 163.9 154.433 163.9H133.553C120.683 163.9 111.053 161.11 104.573 155.44C98.183 149.77 94.943 142.03 94.943 132.4ZM153.443 120.7H134.543C125.183 120.7 121.043 126.01 121.043 132.4C121.043 138.79 125.183 144.1 134.543 144.1H153.443C162.803 144.1 166.943 138.79 166.943 132.4C166.943 126.01 162.803 120.7 153.443 120.7ZM220.096 101.8H282.196V121.6H224.416C220.366 121.6 218.296 122.77 218.296 125.11C218.296 127.54 220.366 128.8 224.416 128.8H253.666C261.136 128.8 266.896 129.52 271.036 130.87C279.046 133.48 283.096 138.61 283.096 146.17C283.096 154 278.686 159.13 269.866 161.56C266.356 162.55 262.126 163 256.996 163H194.896V143.2H252.676C256.726 143.2 258.796 142.03 258.796 139.69C258.796 137.26 256.726 136 252.676 136H223.426C216.136 136 210.466 135.37 206.506 134.11C198.136 131.5 193.996 126.37 193.996 118.63C193.996 110.8 198.406 105.67 207.226 103.24C210.736 102.25 214.966 101.8 220.096 101.8ZM343.375 121.6V163H318.175V121.6H284.875V101.8H376.675V121.6H343.375ZM404.578 128.8H462.178V136H404.578V143.2H465.778V163H379.378V101.8H465.778V121.6H404.578V128.8ZM494.578 146.8V163H469.378V101.8H533.818C541.468 101.8 547.858 103.78 552.988 107.65C558.118 111.52 560.728 117.1 560.728 124.3C560.728 132.85 557.038 139.06 549.748 143.11L561.178 163H531.478L522.118 146.8H494.578ZM529.228 121.6H494.578V128.8H529.228C532.198 128.8 533.728 127.63 533.728 125.2C533.728 122.77 532.198 121.6 529.228 121.6Z" fill="black"/>
</svg>
