<svg width="377" height="63" viewBox="0 0 377 63" fill="none" xmlns="http://www.w3.org/2000/svg">
<path d="M38.546 31.0598H19.0359C20.052 32.8889 21.8134 33.7695 24.4553 33.7695H54.1947V46.6407H23.7779C8.40017 46.6407 0.677433 39.7309 0.677433 28.35C0.677433 22.9983 2.64199 18.595 6.50336 15.2078C10.4325 11.7529 16.1907 10.0594 23.7779 10.0594H38.546C42.9493 10.0594 45.9977 10.4658 49.4526 11.8207C52.9075 13.1078 54.8721 16.0208 54.8721 20.3563C54.8721 27.4694 49.4526 31.0598 38.546 31.0598ZM36.8524 22.9306H24.4553C21.8134 22.9306 20.052 23.8112 19.0359 25.6403H36.8524C38.275 25.6403 38.9524 25.1661 38.9524 24.2854C38.9524 23.4048 38.275 22.9306 36.8524 22.9306ZM74.5388 0.575286H121.282V15.4788H77.7905C74.7421 15.4788 73.184 16.3595 73.184 18.1208C73.184 19.9499 74.7421 20.8983 77.7905 20.8983H99.8071C105.43 20.8983 109.765 21.4402 112.882 22.4564C118.911 24.4209 121.959 28.2823 121.959 33.9727C121.959 39.8664 118.64 43.7278 112.001 45.5569C109.359 46.302 106.175 46.6407 102.314 46.6407H55.5707V31.7372H99.0619C102.11 31.7372 103.668 30.8566 103.668 29.0952C103.668 27.2662 102.11 26.3177 99.0619 26.3177H77.0453C71.5581 26.3177 67.2903 25.8435 64.3096 24.8951C58.0095 22.9306 54.8933 19.0692 54.8933 13.2433C54.8933 7.34962 58.2127 3.48825 64.8515 1.65918C67.4935 0.914002 70.6775 0.575286 74.5388 0.575286ZM122.621 62.2217V10.0594H155.408C162.996 10.0594 168.754 11.7529 172.615 15.2078C176.544 18.595 178.509 22.9983 178.509 28.35C178.509 39.7309 170.786 46.6407 155.408 46.6407H140.234V62.2217H122.621ZM140.234 22.9306V33.7695H154.731C162.928 34.0405 162.928 22.6596 154.731 22.9306H140.234ZM178.541 28.35C178.541 22.9983 180.505 18.595 184.367 15.2078C188.296 11.7529 194.054 10.0594 201.641 10.0594H217.087C224.674 10.0594 230.432 11.7529 234.293 15.2078C238.223 18.595 240.187 22.9983 240.187 28.35C240.187 39.7309 232.464 46.6407 217.087 46.6407H201.641C186.263 46.6407 178.541 39.7309 178.541 28.35ZM216.409 22.9306H202.319C194.122 22.6596 194.122 34.0405 202.319 33.7695H216.409C224.606 34.0405 224.606 22.6596 216.409 22.9306ZM258.457 28.35V46.6407H240.843V28.35C240.843 16.9692 248.566 10.0594 263.944 10.0594H278.78V22.9306H264.621C260.353 22.9306 258.457 25.4371 258.457 28.35ZM322.125 46.6407H302.547C287.169 46.6407 279.447 39.7309 279.447 28.35V10.0594L290.285 1.25272H297.06V10.0594H322.125V22.9306H297.06V28.35C297.06 31.263 298.957 33.7695 303.224 33.7695H322.125V46.6407ZM360.056 46.6407H323.339V33.7695H358.362C359.785 33.7695 360.462 33.2953 360.462 32.4146C360.462 31.534 359.785 31.0598 358.362 31.0598H339.191C328.284 31.0598 322.797 27.5371 322.797 20.4241C322.797 16.0885 324.761 13.1755 328.216 11.8207C331.671 10.4658 334.788 10.0594 339.191 10.0594H375.84V22.9306H340.884C339.462 22.9306 338.717 23.4048 338.717 24.2854C338.717 25.1661 339.462 25.6403 340.884 25.6403H360.056C370.962 25.6403 376.382 29.2307 376.382 36.3438C376.382 40.6793 374.417 43.5923 370.962 44.9472C367.508 46.2343 364.459 46.6407 360.056 46.6407Z" fill="white"/>
</svg>
